<svg xmlns="http://www.w3.org/2000/svg" xmlns:xlink="http://www.w3.org/1999/xlink" width="128" height="128" viewBox="0 0 128 128"><defs><filter id="a" x="-27" y="-24" width="182" height="182" filterUnits="userSpaceOnUse"><feOffset dy="3" input="SourceAlpha"/><feGaussianBlur stdDeviation="9" result="b"/><feFlood flood-opacity="0.161"/><feComposite operator="in" in2="b"/><feComposite in="SourceGraphic"/></filter><clipPath id="d"><rect width="128" height="128"/></clipPath></defs><g id="c" clip-path="url(#d)"><g transform="translate(-51.666 -72.606)"><g transform="matrix(1, 0, 0, 1, 51.67, 72.61)" filter="url(#a)"><rect width="91.632" height="89.388" transform="translate(63.21) rotate(45)" fill="#102542"/></g><rect width="3.74" height="89.388" transform="translate(177.021 134.755) rotate(45)" fill="#fcc770"/><rect width="3.74" height="90.594" transform="translate(51.666 135.89) rotate(-45)" fill="#fcc770"/><g transform="translate(93.461 104.301)"><g transform="translate(30.727 16.162) rotate(180)"><path d="M.358.339a1.265,1.265,0,0,1,1.723,0L8.522,5.083,14.963.339a1.266,1.266,0,0,1,1.723,0,1.114,1.114,0,0,1,0,1.634L9.384,8.9a1.265,1.265,0,0,1-1.723,0L.358,1.973a1.112,1.112,0,0,1,0-1.634Z" transform="translate(0 6.925)" fill="#fcc770" fill-rule="evenodd"/><path d="M1.5,0a1.359,1.359,0,0,1,1.5,1.154V12.7A1.359,1.359,0,0,1,1.5,13.85,1.359,1.359,0,0,1,0,12.7V1.154A1.359,1.359,0,0,1,1.5,0Z" transform="translate(7.026 0)" fill="#fcc770" fill-rule="evenodd"/></g><path d="M43.989,0H0" transform="translate(0.421 41.427)" fill="none" stroke="#fcc770" stroke-linecap="round" stroke-width="3"/><path d="M34.434,0H0" transform="translate(5.267 50.173)" fill="none" stroke="#fcc770" stroke-linecap="round" stroke-width="3"/><path d="M10.967,0H0" transform="translate(17 45.8)" fill="none" stroke="#fcc770" stroke-linecap="round" stroke-width="3"/><path d="M44.41,0H0" transform="translate(0 15.907)" fill="none" stroke="#fcc770" stroke-linecap="round" stroke-width="3"/><path d="M24.4,0H0" transform="translate(44.41 16.596) rotate(90)" fill="none" stroke="#fcc770" stroke-linecap="round" stroke-width="3"/><path d="M24.4,0H0" transform="translate(0 16.596) rotate(90)" fill="none" stroke="#fcc770" stroke-linecap="round" stroke-width="3"/><g transform="translate(12.573 20.535)"><path d="M4.5,7.576a.826.826,0,0,1,.826-.826H23.5a.826.826,0,0,1,0,1.652H5.326A.826.826,0,0,1,4.5,7.576Zm8.259,4.956a.826.826,0,0,1,.826-.826H23.5a.826.826,0,1,1,0,1.652H13.585A.826.826,0,0,1,12.759,12.532Zm0,4.956a.826.826,0,0,1,.826-.826H23.5a.826.826,0,0,1,0,1.652H13.585A.826.826,0,0,1,12.759,17.487ZM4.5,22.443a.826.826,0,0,1,.826-.826H23.5a.826.826,0,0,1,0,1.652H5.326A.826.826,0,0,1,4.5,22.443Z" transform="translate(-4.5 -6.75)" fill="#fcc770" fill-rule="evenodd"/><path d="M7.365,14.081q-.376.213-.735.454a3.2,3.2,0,0,0-.571.494,2.28,2.28,0,0,0-.416.609,2.787,2.787,0,0,0-.2.823H5.9a1.362,1.362,0,0,1,.938.3,1.055,1.055,0,0,1,.347.86,1.151,1.151,0,0,1-.309.765,1.038,1.038,0,0,1-.831.347,1.317,1.317,0,0,1-1.191-.54A2.6,2.6,0,0,1,4.5,16.752a2.419,2.419,0,0,1,.271-1.143,4.069,4.069,0,0,1,.658-.929,4.794,4.794,0,0,1,.842-.707q.446-.29.745-.474l.349.581Zm3.581,0q-.376.213-.735.454a3.2,3.2,0,0,0-.571.494,2.255,2.255,0,0,0-.424.62,2.891,2.891,0,0,0-.195.813h.465a1.362,1.362,0,0,1,.938.3,1.055,1.055,0,0,1,.347.86,1.151,1.151,0,0,1-.309.765,1.039,1.039,0,0,1-.833.347,1.316,1.316,0,0,1-1.189-.54,2.608,2.608,0,0,1-.358-1.442,2.419,2.419,0,0,1,.271-1.143,4.069,4.069,0,0,1,.658-.929,4.794,4.794,0,0,1,.842-.707q.446-.29.745-.474l.349.581Z" transform="translate(-4.5 -8.544)" fill="#fcc770"/></g></g></g></g></svg>