<svg xmlns="http://www.w3.org/2000/svg" id="Layer_1" data-name="Layer 1" viewBox="0 0 359.08 171.3"><link xmlns="" type="text/css" rel="stylesheet" id="dark-mode-custom-link"/><link xmlns="" type="text/css" rel="stylesheet" id="dark-mode-general-link"/><style xmlns="" lang="en" type="text/css" id="dark-mode-custom-style"/><style xmlns="" lang="en" type="text/css" id="dark-mode-native-style"/><defs><style>.cls-1{fill:#f18532;}.cls-2{fill:#ed6e4f;}.cls-3{fill:#f9b233;}.cls-4{fill:#e94e1b;}.cls-5{fill:#e6332a;}.cls-6{fill:#fff;opacity:0.26;}.cls-7{fill:#ee7258;}.cls-8{fill:#fcc770;}</style></defs><polygon class="cls-1" points="31.62 32.99 31.71 33.04 31.71 32.94 31.62 32.99"/><polygon class="cls-2" points="47.57 102.1 47.57 122.2 63.43 131.09 63.43 110.98 47.57 102.1"/><polygon class="cls-3" points="15.86 64.22 0 55.34 0 75.44 15.86 84.33 15.86 64.22"/><polygon class="cls-4" points="47.57 81.99 31.71 73.11 31.71 93.21 47.57 102.1 47.57 81.99"/><polygon class="cls-5" points="47.57 142.31 47.57 162.42 63.43 171.3 63.43 151.2 47.57 142.31"/><polygon class="cls-2" points="63.43 70.77 47.57 61.88 47.57 81.99 63.43 90.87 63.43 70.77"/><polygon class="cls-3" points="47.57 81.99 47.57 102.1 63.43 110.98 63.43 90.87 47.57 81.99"/><polygon class="cls-2" points="15.86 104.44 0 95.55 0 115.66 15.86 124.54 15.86 104.44"/><polygon class="cls-2" points="15.86 124.54 15.86 144.65 31.71 153.53 31.71 133.43 15.86 124.54"/><polygon class="cls-1" points="47.57 122.2 47.57 142.31 63.43 151.2 63.43 131.09 47.57 122.2"/><polygon class="cls-4" points="31.71 113.32 31.71 133.43 47.57 142.31 47.57 122.2 31.71 113.32"/><polygon class="cls-3" points="15.86 104.44 15.86 124.54 31.71 133.43 31.71 113.32 15.86 104.44"/><polygon class="cls-2" points="63.43 90.87 63.43 110.98 79.28 119.87 79.28 99.76 63.43 90.87"/><polygon class="cls-5" points="31.71 93.21 15.86 84.33 15.86 104.44 31.71 113.32 31.71 93.21"/><polygon class="cls-5" points="63.43 131.09 63.43 151.2 79.28 160.08 79.28 139.97 63.43 131.09"/><polygon class="cls-5" points="31.71 53 15.86 44.11 15.86 64.22 31.71 73.11 31.71 53"/><polygon class="cls-1" points="31.71 73.11 15.86 64.22 15.86 84.33 31.71 93.21 31.71 73.11"/><polygon class="cls-1" points="79.28 59.54 79.28 59.86 79.56 59.7 79.28 59.54"/><polygon class="cls-5" points="110.98 102.1 110.98 122.2 95.12 131.09 95.12 110.98 110.98 102.1"/><polygon class="cls-3" points="142.69 64.22 158.55 55.34 158.55 75.44 142.69 84.33 142.69 64.22"/><polygon class="cls-4" points="110.98 81.99 126.84 73.11 126.84 93.21 110.98 102.1 110.98 81.99"/><polygon class="cls-5" points="110.98 142.31 110.98 162.42 95.12 171.3 95.12 151.2 110.98 142.31"/><polygon class="cls-2" points="95.12 70.77 110.98 61.88 110.98 81.99 95.12 90.87 95.12 70.77"/><polygon class="cls-3" points="110.98 81.99 110.98 102.1 95.12 110.98 95.12 90.87 110.98 81.99"/><polygon class="cls-2" points="142.69 104.44 158.55 95.55 158.55 115.66 142.69 124.54 142.69 104.44"/><polygon class="cls-2" points="142.69 124.54 142.69 144.65 126.84 153.53 126.84 133.43 142.69 124.54"/><polygon class="cls-3" points="110.98 122.2 110.98 142.31 95.12 151.2 95.12 131.09 110.98 122.2"/><polygon class="cls-4" points="126.84 113.32 126.84 133.43 110.98 142.31 110.98 122.2 126.84 113.32"/><polygon class="cls-1" points="142.69 104.44 142.69 124.54 126.84 133.43 126.84 113.32 142.69 104.44"/><polygon class="cls-4" points="95.12 90.87 95.12 110.98 79.27 119.87 79.27 99.76 95.12 90.87"/><polygon class="cls-5" points="126.84 93.21 142.69 84.33 142.69 104.44 126.84 113.32 126.84 93.21"/><polygon class="cls-4" points="95.12 131.09 95.12 151.2 79.27 160.08 79.27 139.97 95.12 131.09"/><polygon class="cls-5" points="126.84 53 142.69 44.11 142.69 64.22 126.84 73.11 126.84 53"/><polygon class="cls-1" points="126.84 73.11 142.69 64.22 142.69 84.33 126.84 93.21 126.84 73.11"/><polygon class="cls-5" points="79.27 26.46 95.14 35.33 110.96 26.48 95.09 17.63 79.27 26.46"/><polygon class="cls-3" points="31.66 35.3 15.71 44.18 31.54 53.1 47.49 44.2 31.66 35.3"/><polygon class="cls-4" points="63.44 17.61 47.57 26.44 63.4 35.32 79.27 26.46 63.44 17.61"/><polygon class="cls-4" points="111.05 44.23 127.01 53.15 142.83 44.24 126.88 35.35 111.05 44.23"/><polygon class="cls-2" points="63.48 0 47.65 8.79 63.44 17.61 79.26 8.8 63.48 0"/><polygon class="cls-3" points="63.44 17.61 79.27 26.46 95.09 17.63 79.26 8.8 63.44 17.61"/><polygon class="cls-4" points="63.36 53.12 47.41 62.04 63.32 71.01 79.28 62.06 63.36 53.12"/><polygon class="cls-2" points="79.28 62.06 95.23 71.03 111.14 62.08 95.19 53.13 79.28 62.06"/><polygon class="cls-3" points="95.14 35.33 111.05 44.23 126.88 35.35 110.96 26.48 95.14 35.33"/><polygon class="cls-2" points="79.27 44.21 95.19 53.13 111.05 44.23 95.14 35.33 79.27 44.21"/><polygon class="cls-1" points="63.36 53.12 79.28 62.06 95.19 53.13 79.27 44.21 63.36 53.12"/><polygon class="cls-4" points="79.26 8.8 95.09 17.63 110.87 8.82 95.05 0.01 79.26 8.8"/><polygon class="cls-5" points="63.4 35.32 47.49 44.2 63.36 53.12 79.27 44.21 63.4 35.32"/><polygon class="cls-2" points="110.96 26.48 126.88 35.35 142.66 26.49 126.75 17.64 110.96 26.48"/><polygon class="cls-5" points="31.79 17.59 15.88 26.43 31.66 35.3 47.57 26.44 31.79 17.59"/><polygon class="cls-1" points="47.57 26.44 31.66 35.3 47.49 44.2 63.4 35.32 47.57 26.44"/><polygon class="cls-1" points="79.27 59.54 79.27 59.86 78.98 59.7 79.27 59.54"/><path class="cls-6" d="M158.55,75.44V55.34l-15.86,8.88V44.32l.14-.08-.14-.08v0l0,0-15.77-8.79,15.78-8.86-15.91-8.85L111,26.47,95.09,17.63l15.78-8.81L95.05,0,79.26,8.8,63.48,0,47.65,8.79l15.79,8.82L47.57,26.44,31.79,17.6,15.88,26.43,31.66,35.3,15.71,44.18l.15.08v20L0,55.34v20.1l15.86,8.89v20.1L0,95.55v20.11l15.86,8.88v20.11l15.85,8.88v-20.1l15.86,8.88v20.11l15.86,8.88V151.2l15.84,8.87h0l15.84-8.87v20.1L111,162.42V142.31l15.86-8.88v20.1l15.85-8.88V124.54l15.86-8.88V95.55l-15.86,8.88V84.33ZM126.84,53.05v20L111,82V62.17l.16-.09L111,62v-.11l-.09,0-15.7-8.8,15.86-8.9ZM79.27,99.75,63.43,90.87V71l15.85-8.9L95.12,71v19.9Zm0-73.29,15.87,8.87L79.27,44.21,63.4,35.32ZM31.71,53l15.78-8.8,15.87,8.92-15.73,8.8-.06,0V62l-.16.08.16.09V82L31.71,73.1Zm0,60.32V93.21l15.86,8.89v20.1ZM79.27,140l-15.84-8.88V111l15.84,8.88h0L95.12,111v20.11Zm47.57-26.65L111,122.2V102.1l15.86-8.89Z"/><path class="cls-7" d="M194.55,88.13V63H184.16V88.13h-8.74V30.4h8.74V54.73h10.39V30.4h8.74V88.13Z"/><path class="cls-7" d="M226.88,38.65V88.13h-8.74V38.65h-9.32V30.4H236.2v8.25Z"/><path class="cls-7" d="M270,88.13V48.05h-.16l-7.26,31.84H257.4l-7.26-31.84H250V88.13h-8.25V30.4h11.47l6.85,31h.16l6.76-31h11.8V88.13Z"/><path class="cls-7" d="M308.2,79.89v8.24H284.86V30.4h8.74V79.89Z"/><path class="cls-8" d="M188,98.19c9.41,0,14.52,5.12,14.52,14.6v28.54c0,9.48-5.11,14.6-14.52,14.6H175.42V98.19Zm-3.79,49.65h3.46c4.21,0,6.11-2.22,6.11-7.09V113.37c0-4.87-1.9-7.09-6.11-7.09h-3.46Z"/><path class="cls-8" d="M207.66,155.93V98.19h8.75v57.74Z"/><path class="cls-8" d="M250.63,111.22v4l-8.41.41v-3.46c0-4.62-1.73-6.68-5.11-6.68s-5.12,2.06-5.12,5.86v31.5c0,3.8,1.65,5.86,5,5.86s5-2.06,5-6.68v-9.9h-4.94V124h13.52v18.88c0,8.75-5,13.86-13.77,13.86s-13.61-5.11-13.61-13.86V111.22c0-8.74,4.95-13.85,13.61-13.85S250.63,102.48,250.63,111.22Z"/><path class="cls-8" d="M257.23,155.93V98.19H266v57.74Z"/><path class="cls-8" d="M289.56,106.44v49.49h-8.75V106.44H271.5V98.19h27.38v8.25Z"/><path class="cls-8" d="M320.57,155.93l-1.9-13.12H309l-1.89,13.12h-8.75l10-57.74H319.5l10,57.74Zm-10.39-21h7.34L314,110.56h-.25Z"/><path class="cls-8" d="M359.08,147.68v8.25H335.74V98.19h8.75v49.49Z"/></svg>